<svg width="500" height="500" viewBox="0 0 500 500" fill="none" xmlns="http://www.w3.org/2000/svg">
<rect width="500" height="500" rx="100" fill="#00483A"/>
<path d="M148.645 281.577L148.656 154.012L111.334 154.045L111.499 281.809H111.413C110.684 296.847 98.7873 308.858 84.0955 308.952C69.4091 309.042 57.3616 297.182 56.4397 282.161L21.0074 282.38C21.0092 282.527 21 282.674 21 282.825C21.2227 318.323 49.9789 346.918 85.2364 346.699C120.487 346.48 148.886 317.525 148.661 282.021C148.661 281.87 148.648 281.724 148.645 281.577Z" fill="white"/>
<path d="M249.295 154.046L130.623 342.83L179.157 342.777L190.679 322.049L247.111 322.027L247.151 342.838L294.858 342.819L294.591 154.002L249.295 154.046ZM253.327 268.861L220.738 268.883L250.97 215.018L253.362 215.027L253.327 268.861Z" fill="white"/>
<path d="M478.999 154L427.274 154.033L395.351 202.124L368.752 154H319.82L368.695 242.33L302.154 342.819H357.021L393.296 286.762L424.37 342.819H472.984L419.623 246.073L478.999 154Z" fill="white"/>
</svg>
